# xmcd
#
# Track frame offsets: 
#        150
#        32016
#        56558
#        73044
#        98831
#        112461
#        149250
#        180819
#        206996
#        243575
#
# Disc length: 3567 seconds
#
# Revision: 0
# Processed by: cddbd v1.5.2PL0 Copyright (c) Steve Scherf et al.
# Submitted via: ExactAudioCopyFreeDBPlugin 1.0
#
DISCID=950ded0a
DTITLE=Lenny Watkins - Live At Memphis Smoke
DYEAR=2003
DGENRE=Blues
TTITLE0=Goin' Back Home
TTITLE1=Loveland
TTITLE2=That's Alright
TTITLE3=Time To Say Goodbye
TTITLE4=Lonely Nights
TTITLE5=Conversation
TTITLE6=Rock Me Baby
TTITLE7=Here I Am
TTITLE8=Tribute To John Lee
TTITLE9=Don't Let My Baby Ride
EXTD=
EXTT0=
EXTT1=
EXTT2=
EXTT3=
EXTT4=
EXTT5=
EXTT6=
EXTT7=
EXTT8=
EXTT9=
PLAYORDER=
